<svg width="1440" height="634" viewBox="0 0 1440 634" fill="none" xmlns="http://www.w3.org/2000/svg">
<path fill-rule="evenodd" clip-rule="evenodd" d="M1897 612.329L1816.17 632.154C1735.33 651.979 1606 503.29 1434 503.29C1252 503.29 1088.67 473.65 927 434C765.333 394.349 603.667 433.902 442 503.29C280.333 572.678 89.0001 522.709 -42.9999 460C-175 370.787 -366.333 533.028 -447.166 483.465L-528 433.902L-528 196L-447.166 196C-366.333 196 -204.666 196 -42.9998 196C118.667 196 280.333 196 442 196C603.667 196 765.333 196 927 196C1088.67 196 1250.33 196 1412 196C1573.67 196 1735.33 196 1816.17 196L1897 196L1897 612.329Z" fill="#D2E4FF" fill-opacity="0.4"/>
<path fill-rule="evenodd" clip-rule="evenodd" d="M1897 542.329L1816.17 562.154C1735.33 581.979 1606 433.29 1434 433.29C1252 433.29 1088.67 403.65 927 364C765.333 324.349 603.667 363.902 442 433.29C280.333 502.678 89.0001 452.709 -42.9999 390C-175 300.787 -366.333 463.028 -447.166 413.465L-528 363.902L-528 126L-447.166 126C-366.333 126 -204.666 126 -42.9998 126C118.667 126 280.333 126 442 126C603.667 126 765.333 126 927 126C1088.67 126 1250.33 126 1412 126C1573.67 126 1735.33 126 1816.17 126L1897 126L1897 542.329Z" fill="#F3E281" fill-opacity="0.4"/>
<path fill-rule="evenodd" clip-rule="evenodd" d="M1897 466.329L1816.17 486.154C1735.33 505.979 1606 357.29 1434 357.29C1252 357.29 1088.67 327.65 927 288C765.333 248.349 603.667 287.902 442 357.29C280.333 426.678 89.0001 376.709 -42.9999 314C-175 224.787 -366.333 387.028 -447.166 337.465L-528 287.902L-528 50.0001L-447.166 50.0001C-366.333 50.0001 -204.666 50.0001 -42.9998 50.0001C118.667 50.0001 280.333 50.0002 442 50.0002C603.667 50.0002 765.333 50.0002 927 50.0002C1088.67 50.0002 1250.33 50.0002 1412 50.0002C1573.67 50.0003 1735.33 50.0003 1816.17 50.0003L1897 50.0003L1897 466.329Z" fill="#FDA725" fill-opacity="0.4"/>
<path fill-rule="evenodd" clip-rule="evenodd" d="M1923 385.329L1842.17 405.154C1761.33 424.979 1632 276.29 1460 276.29C1278 276.29 1114.67 246.65 953 207C791.333 167.349 629.667 206.902 468 276.29C306.333 345.678 115 295.709 -16.9999 233C-149 143.787 -340.333 306.028 -421.166 256.465L-502 206.902L-502 -30.9999L-421.166 -30.9999C-340.333 -30.9999 -178.666 -30.9999 -16.9998 -30.9999C144.667 -30.9999 306.333 -30.9998 468 -30.9998C629.667 -30.9998 791.333 -30.9998 953 -30.9998C1114.67 -30.9998 1276.33 -30.9998 1438 -30.9998C1599.67 -30.9997 1761.33 -30.9997 1842.17 -30.9997L1923 -30.9997L1923 385.329Z" fill="#D2E4FF"/>
<path fill-rule="evenodd" clip-rule="evenodd" d="M1923 315.329L1842.17 335.154C1761.33 354.979 1632 206.29 1460 206.29C1278 206.29 1114.67 176.65 953 137C791.333 97.3494 629.667 136.902 468 206.29C306.333 275.678 115 225.709 -16.9999 163C-149 73.7865 -340.333 236.028 -421.166 186.465L-502 136.902L-502 -101L-421.166 -101C-340.333 -101 -178.666 -101 -16.9998 -101C144.667 -101 306.333 -101 468 -101C629.667 -101 791.333 -101 953 -101C1114.67 -101 1276.33 -101 1438 -101C1599.67 -101 1761.33 -101 1842.17 -101L1923 -101L1923 315.329Z" fill="#F3E281"/>
<path fill-rule="evenodd" clip-rule="evenodd" d="M1923 239.329L1842.17 259.154C1761.33 278.979 1632 130.29 1460 130.29C1278 130.29 1114.67 100.65 953 60.9998C791.333 21.3494 629.667 60.9022 468 130.29C306.333 199.678 115 149.709 -16.9999 86.9998C-149 -2.21347 -340.333 160.028 -421.166 110.465L-502 60.9021L-502 -177L-421.166 -177C-340.333 -177 -178.666 -177 -16.9998 -177C144.667 -177 306.333 -177 468 -177C629.667 -177 791.333 -177 953 -177C1114.67 -177 1276.33 -177 1438 -177C1599.67 -177 1761.33 -177 1842.17 -177L1923 -177L1923 239.329Z" fill="#FDA725"/>
</svg>
