<svg width="436" height="242" viewBox="0 0 436 242" fill="none" xmlns="http://www.w3.org/2000/svg">
<mask id="mask0_66:326" style="mask-type:alpha" maskUnits="userSpaceOnUse" x="0" y="0" width="436" height="242">
<rect x="0.5" width="435" height="242" fill="white"/>
</mask>
<g mask="url(#mask0_66:326)">
<rect opacity="0.02" x="0.5" width="435" height="242" fill="#828282"/>
<g opacity="0.06">
<path d="M0.5 0L435.5 242" stroke="#828282"/>
<path d="M17.4922 -9.45312L452.492 232.547" stroke="#828282"/>
<path d="M34.4844 -18.9062L469.484 223.094" stroke="#828282"/>
<path d="M51.4766 -28.3594L486.477 213.641" stroke="#828282"/>
<path d="M68.4688 -37.8125L503.469 204.188" stroke="#828282"/>
<path d="M85.4609 -47.2656L520.461 194.734" stroke="#828282"/>
<path d="M102.453 -56.7188L537.453 185.281" stroke="#828282"/>
<path d="M119.445 -66.1719L554.445 175.828" stroke="#828282"/>
<path d="M136.438 -75.625L571.438 166.375" stroke="#828282"/>
<path d="M153.43 -85.0781L588.43 156.922" stroke="#828282"/>
<path d="M170.422 -94.5312L605.422 147.469" stroke="#828282"/>
<path d="M187.414 -103.984L622.414 138.016" stroke="#828282"/>
<path d="M204.406 -113.438L639.406 128.562" stroke="#828282"/>
<path d="M-16.4922 9.45312L418.508 251.453" stroke="#828282"/>
<path d="M-33.4844 18.9062L401.516 260.906" stroke="#828282"/>
<path d="M-50.4766 28.3594L384.523 270.359" stroke="#828282"/>
<path d="M-67.4688 37.8125L367.531 279.812" stroke="#828282"/>
<path d="M-84.4609 47.2656L350.539 289.266" stroke="#828282"/>
<path d="M-101.453 56.7188L333.547 298.719" stroke="#828282"/>
<path d="M-118.445 66.1719L316.555 308.172" stroke="#828282"/>
<path d="M-135.438 75.625L299.562 317.625" stroke="#828282"/>
<path d="M-152.43 85.0781L282.57 327.078" stroke="#828282"/>
<path d="M-169.422 94.5312L265.578 336.531" stroke="#828282"/>
<path d="M-186.414 103.984L248.586 345.984" stroke="#828282"/>
<path d="M-203.406 113.438L231.594 355.438" stroke="#828282"/>
<path d="M-220.398 122.891L214.602 364.891" stroke="#828282"/>
</g>
<g opacity="0.06">
<path d="M8.99609 -4.72656L443.996 237.273" stroke="#828282"/>
<path d="M25.9883 -14.1797L460.988 227.82" stroke="#828282"/>
<path d="M42.9805 -23.6328L477.98 218.367" stroke="#828282"/>
<path d="M59.9727 -33.0859L494.973 208.914" stroke="#828282"/>
<path d="M76.9648 -42.5391L511.965 199.461" stroke="#828282"/>
<path d="M93.957 -51.9922L528.957 190.008" stroke="#828282"/>
<path d="M110.949 -61.4453L545.949 180.555" stroke="#828282"/>
<path d="M127.941 -70.8984L562.941 171.102" stroke="#828282"/>
<path d="M144.934 -80.3516L579.934 161.648" stroke="#828282"/>
<path d="M161.926 -89.8047L596.926 152.195" stroke="#828282"/>
<path d="M178.918 -99.2578L613.918 142.742" stroke="#828282"/>
<path d="M195.91 -108.711L630.91 133.289" stroke="#828282"/>
<path d="M212.902 -118.164L647.902 123.836" stroke="#828282"/>
<path d="M-7.99609 4.72656L427.004 246.727" stroke="#828282"/>
<path d="M-24.9883 14.1797L410.012 256.18" stroke="#828282"/>
<path d="M-41.9805 23.6328L393.02 265.633" stroke="#828282"/>
<path d="M-58.9727 33.0859L376.027 275.086" stroke="#828282"/>
<path d="M-75.9648 42.5391L359.035 284.539" stroke="#828282"/>
<path d="M-92.957 51.9922L342.043 293.992" stroke="#828282"/>
<path d="M-109.949 61.4453L325.051 303.445" stroke="#828282"/>
<path d="M-126.941 70.8984L308.059 312.898" stroke="#828282"/>
<path d="M-143.934 80.3516L291.066 322.352" stroke="#828282"/>
<path d="M-160.926 89.8047L274.074 331.805" stroke="#828282"/>
<path d="M-177.918 99.2578L257.082 341.258" stroke="#828282"/>
<path d="M-194.91 108.711L240.09 350.711" stroke="#828282"/>
<path d="M-211.902 118.164L223.098 360.164" stroke="#828282"/>
</g>
</g>
<g opacity="0.5">
<path d="M230.167 106H206.833C204.992 106 203.5 107.492 203.5 109.333V132.667C203.5 134.508 204.992 136 206.833 136H230.167C232.008 136 233.5 134.508 233.5 132.667V109.333C233.5 107.492 232.008 106 230.167 106Z" stroke="#828282" stroke-width="1.5" stroke-linecap="round" stroke-linejoin="round"/>
<path d="M212.667 117.667C214.047 117.667 215.167 116.547 215.167 115.167C215.167 113.786 214.047 112.667 212.667 112.667C211.286 112.667 210.167 113.786 210.167 115.167C210.167 116.547 211.286 117.667 212.667 117.667Z" stroke="#828282" stroke-width="1.5" stroke-linecap="round" stroke-linejoin="round"/>
<path d="M233.5 126L225.167 117.667L206.833 136" stroke="#828282" stroke-width="1.5" stroke-linecap="round" stroke-linejoin="round"/>
</g>
<rect x="1" y="0.5" width="434" height="241" stroke=""/>
</svg>
