<svg width="112" height="60" viewBox="0 0 112 60" fill="none" xmlns="http://www.w3.org/2000/svg">
<path fill-rule="evenodd" clip-rule="evenodd" d="M0 3C0 1.34315 1.34315 0 3 0H109C110.657 0 112 1.34315 112 3V57C112 58.6569 110.657 60 109 60H3C1.34315 60 0 58.6569 0 57V3Z" fill="#DEDEDE"/>
<path d="M34.0973 35H41.5462V32.9716H36.5575V23.3636H34.0973V35ZM53.4155 29.1818C53.4155 25.375 51.0518 23.2045 47.9666 23.2045C44.8643 23.2045 42.5178 25.375 42.5178 29.1818C42.5178 32.9716 44.8643 35.1591 47.9666 35.1591C51.0518 35.1591 53.4155 32.9886 53.4155 29.1818ZM50.9212 29.1818C50.9212 31.6477 49.7507 32.983 47.9666 32.983C46.1768 32.983 45.0121 31.6477 45.0121 29.1818C45.0121 26.7159 46.1768 25.3807 47.9666 25.3807C49.7507 25.3807 50.9212 26.7159 50.9212 29.1818ZM62.9538 27.125H65.4538C65.1357 24.8239 63.1072 23.2045 60.4766 23.2045C57.4027 23.2045 55.0334 25.4205 55.0334 29.1932C55.0334 32.875 57.2493 35.1591 60.5277 35.1591C63.4652 35.1591 65.5618 33.3011 65.5618 30.2386V28.7727H60.6925V30.625H63.1925C63.1584 32.0682 62.1754 32.983 60.5391 32.983C58.6925 32.983 57.5277 31.6023 57.5277 29.1705C57.5277 26.75 58.7379 25.3807 60.5163 25.3807C61.7834 25.3807 62.6413 26.0341 62.9538 27.125ZM78.103 29.1818C78.103 25.375 75.7393 23.2045 72.6541 23.2045C69.5518 23.2045 67.2053 25.375 67.2053 29.1818C67.2053 32.9716 69.5518 35.1591 72.6541 35.1591C75.7393 35.1591 78.103 32.9886 78.103 29.1818ZM75.6087 29.1818C75.6087 31.6477 74.4382 32.983 72.6541 32.983C70.8643 32.983 69.6996 31.6477 69.6996 29.1818C69.6996 26.7159 70.8643 25.3807 72.6541 25.3807C74.4382 25.3807 75.6087 26.7159 75.6087 29.1818Z" fill="white"/>
</svg>
