<svg width="104" height="51" viewBox="0 0 104 51" fill="none" xmlns="http://www.w3.org/2000/svg">
<g filter="url(#filter0_d_64:395)">
<rect x="4" y="0.5" width="96" height="42" rx="12" fill="#828282"/>
<path d="M23.4473 16.532H25.2533V25.016H29.9153V26.5H23.4473V16.532ZM37.6023 23.056H32.7303C32.7676 23.812 32.9543 24.372 33.2903 24.736C33.6356 25.0907 34.1443 25.268 34.8163 25.268C35.591 25.268 36.3096 25.016 36.9723 24.512L37.4763 25.716C37.1403 25.9867 36.725 26.206 36.2303 26.374C35.745 26.5327 35.2503 26.612 34.7463 26.612C33.589 26.612 32.679 26.2853 32.0163 25.632C31.3536 24.9787 31.0223 24.0827 31.0223 22.944C31.0223 22.2253 31.167 21.586 31.4563 21.026C31.7456 20.466 32.1516 20.032 32.6743 19.724C33.197 19.4067 33.7896 19.248 34.4523 19.248C35.423 19.248 36.1883 19.5653 36.7483 20.2C37.3176 20.8253 37.6023 21.6887 37.6023 22.79V23.056ZM34.4943 20.508C34.0276 20.508 33.645 20.648 33.3463 20.928C33.057 21.1987 32.8703 21.5953 32.7863 22.118H36.0763C36.0203 21.586 35.857 21.1847 35.5863 20.914C35.325 20.6433 34.961 20.508 34.4943 20.508ZM41.5145 20.746V23.91C41.5145 24.7407 41.9019 25.156 42.6765 25.156C42.8912 25.156 43.1245 25.1187 43.3765 25.044V26.43C43.0685 26.542 42.6952 26.598 42.2565 26.598C41.4539 26.598 40.8379 26.374 40.4085 25.926C39.9792 25.478 39.7645 24.834 39.7645 23.994V20.746H38.4065V19.43H39.7645V17.708L41.5145 17.12V19.43H43.3905V20.746H41.5145ZM46.7259 16.532V17.82C46.7259 18.3147 46.6419 18.7627 46.4739 19.164C46.3059 19.556 46.0212 19.9527 45.6199 20.354L44.9059 19.794C45.3259 19.346 45.5779 18.912 45.6619 18.492H44.7659V16.532H46.7259ZM50.9688 26.612C49.6901 26.612 48.6728 26.3133 47.9168 25.716L48.4068 24.484C49.1628 25.044 50.0261 25.324 50.9968 25.324C51.4168 25.324 51.7388 25.254 51.9628 25.114C52.1961 24.974 52.3128 24.778 52.3128 24.526C52.3128 24.3113 52.2334 24.1433 52.0748 24.022C51.9161 23.8913 51.6454 23.7793 51.2628 23.686L50.0868 23.42C48.7988 23.14 48.1548 22.482 48.1548 21.446C48.1548 21.0167 48.2761 20.6387 48.5188 20.312C48.7614 19.976 49.1021 19.7147 49.5408 19.528C49.9794 19.3413 50.4881 19.248 51.0668 19.248C51.5708 19.248 52.0561 19.3273 52.5228 19.486C52.9894 19.6353 53.4001 19.8547 53.7548 20.144L53.2368 21.334C52.5274 20.8113 51.7994 20.55 51.0528 20.55C50.6514 20.55 50.3388 20.6247 50.1148 20.774C49.8908 20.9233 49.7788 21.1287 49.7788 21.39C49.7788 21.5953 49.8441 21.7587 49.9748 21.88C50.1148 22.0013 50.3481 22.104 50.6748 22.188L51.8788 22.454C52.5788 22.6127 53.0874 22.86 53.4048 23.196C53.7314 23.5227 53.8948 23.952 53.8948 24.484C53.8948 25.1373 53.6334 25.6553 53.1108 26.038C52.5881 26.4207 51.8741 26.612 50.9688 26.612ZM68.2762 21.11V25.898C67.8189 26.122 67.2682 26.2993 66.6242 26.43C65.9802 26.5607 65.3222 26.626 64.6502 26.626C63.6236 26.626 62.7322 26.4207 61.9762 26.01C61.2202 25.5993 60.6416 25.0113 60.2402 24.246C59.8389 23.4807 59.6382 22.566 59.6382 21.502C59.6382 20.4567 59.8389 19.5513 60.2402 18.786C60.6416 18.0207 61.2109 17.4327 61.9482 17.022C62.6949 16.6113 63.5676 16.406 64.5662 16.406C65.2662 16.406 65.9196 16.5087 66.5262 16.714C67.1422 16.9193 67.6556 17.2087 68.0662 17.582L67.4502 18.898C66.9836 18.534 66.5262 18.2727 66.0782 18.114C65.6302 17.9553 65.1402 17.876 64.6082 17.876C63.5816 17.876 62.8022 18.184 62.2702 18.8C61.7476 19.416 61.4862 20.3167 61.4862 21.502C61.4862 22.7247 61.7569 23.6487 62.2982 24.274C62.8396 24.89 63.6469 25.198 64.7202 25.198C65.3736 25.198 66.0176 25.1093 66.6522 24.932V22.412H64.4962V21.11H68.2762ZM73.6898 26.612C72.9712 26.612 72.3365 26.4627 71.7858 26.164C71.2445 25.8653 70.8245 25.4407 70.5258 24.89C70.2365 24.33 70.0918 23.6767 70.0918 22.93C70.0918 22.1833 70.2365 21.5347 70.5258 20.984C70.8245 20.424 71.2445 19.9947 71.7858 19.696C72.3365 19.3973 72.9712 19.248 73.6898 19.248C74.3992 19.248 75.0245 19.3973 75.5658 19.696C76.1072 19.9947 76.5225 20.424 76.8118 20.984C77.1105 21.5347 77.2598 22.1833 77.2598 22.93C77.2598 23.6767 77.1105 24.33 76.8118 24.89C76.5225 25.4407 76.1072 25.8653 75.5658 26.164C75.0245 26.4627 74.3992 26.612 73.6898 26.612ZM73.6758 25.24C74.2732 25.24 74.7258 25.0487 75.0338 24.666C75.3512 24.274 75.5098 23.6953 75.5098 22.93C75.5098 22.174 75.3512 21.6 75.0338 21.208C74.7165 20.8067 74.2685 20.606 73.6898 20.606C73.1018 20.606 72.6492 20.8067 72.3318 21.208C72.0145 21.6 71.8558 22.174 71.8558 22.93C71.8558 23.6953 72.0098 24.274 72.3178 24.666C72.6352 25.0487 73.0878 25.24 73.6758 25.24ZM78.775 16.518L80.945 16.532L80.399 23.504H79.335L78.775 16.518ZM80.847 24.54V26.5H78.887V24.54H80.847Z" fill="white"/>
</g>
<defs>
<filter id="filter0_d_64:395" x="0" y="0.5" width="104" height="50" filterUnits="userSpaceOnUse" color-interpolation-filters="sRGB">
<feFlood flood-opacity="0" result="BackgroundImageFix"/>
<feColorMatrix in="SourceAlpha" type="matrix" values="0 0 0 0 0 0 0 0 0 0 0 0 0 0 0 0 0 0 127 0" result="hardAlpha"/>
<feOffset dy="4"/>
<feGaussianBlur stdDeviation="2"/>
<feComposite in2="hardAlpha" operator="out"/>
<feColorMatrix type="matrix" values="0 0 0 0 0 0 0 0 0 0 0 0 0 0 0 0 0 0 0.25 0"/>
<feBlend mode="normal" in2="BackgroundImageFix" result="effect1_dropShadow_64:395"/>
<feBlend mode="normal" in="SourceGraphic" in2="effect1_dropShadow_64:395" result="shape"/>
</filter>
</defs>
</svg>
