<svg width="140" height="76" viewBox="0 0 140 76" fill="none" xmlns="http://www.w3.org/2000/svg">
<path fill-rule="evenodd" clip-rule="evenodd" d="M0 3.5C0 1.84315 1.34315 0.5 3 0.5H137C138.657 0.5 140 1.84315 140 3.5V72.5C140 74.1569 138.657 75.5 137 75.5H3C1.34315 75.5 0 74.1569 0 72.5V3.5Z" fill="#BDBDBD"/>
<path d="M48.0973 45.25H55.5462V43.2216H50.5575V33.6136H48.0973V45.25ZM67.4155 39.4318C67.4155 35.625 65.0518 33.4545 61.9666 33.4545C58.8643 33.4545 56.5178 35.625 56.5178 39.4318C56.5178 43.2216 58.8643 45.4091 61.9666 45.4091C65.0518 45.4091 67.4155 43.2386 67.4155 39.4318ZM64.9212 39.4318C64.9212 41.8977 63.7507 43.233 61.9666 43.233C60.1768 43.233 59.0121 41.8977 59.0121 39.4318C59.0121 36.9659 60.1768 35.6307 61.9666 35.6307C63.7507 35.6307 64.9212 36.9659 64.9212 39.4318ZM76.9538 37.375H79.4538C79.1357 35.0739 77.1072 33.4545 74.4766 33.4545C71.4027 33.4545 69.0334 35.6705 69.0334 39.4432C69.0334 43.125 71.2493 45.4091 74.5277 45.4091C77.4652 45.4091 79.5618 43.5511 79.5618 40.4886V39.0227H74.6925V40.875H77.1925C77.1584 42.3182 76.1754 43.233 74.5391 43.233C72.6925 43.233 71.5277 41.8523 71.5277 39.4205C71.5277 37 72.7379 35.6307 74.5163 35.6307C75.7834 35.6307 76.6413 36.2841 76.9538 37.375ZM92.103 39.4318C92.103 35.625 89.7393 33.4545 86.6541 33.4545C83.5518 33.4545 81.2053 35.625 81.2053 39.4318C81.2053 43.2216 83.5518 45.4091 86.6541 45.4091C89.7393 45.4091 92.103 43.2386 92.103 39.4318ZM89.6087 39.4318C89.6087 41.8977 88.4382 43.233 86.6541 43.233C84.8643 43.233 83.6996 41.8977 83.6996 39.4318C83.6996 36.9659 84.8643 35.6307 86.6541 35.6307C88.4382 35.6307 89.6087 36.9659 89.6087 39.4318Z" fill="white"/>
</svg>
